<svg width="393" height="132" viewBox="0 0 393 132" fill="none" xmlns="http://www.w3.org/2000/svg">
<g filter="url(#filter0_d_40_273)">
<path fill-rule="evenodd" clip-rule="evenodd" d="M0 93.3L10.8075 86.85C21.9425 80.4 43.5575 67.5 65.5 71.8C87.4425 76.1 109.057 97.6 131 97.6C152.942 97.6 174.557 76.1 196.5 58.9C218.442 41.7 240.057 28.8 262 20.2C283.942 11.6 305.557 7.3 327.5 5.15C349.442 3 371.057 3 382.192 3H393V132H382.192C371.057 132 349.442 132 327.5 132C305.557 132 283.942 132 262 132C240.057 132 218.442 132 196.5 132C174.557 132 152.942 132 131 132C109.057 132 87.4425 132 65.5 132C43.5575 132 21.9425 132 10.8075 132H0V93.3Z" fill="#FCA311"/>
</g>
<path fill-rule="evenodd" clip-rule="evenodd" d="M0.00012207 95.8401L10.8076 89.8135C21.9426 83.7868 43.5576 71.7336 65.5001 75.7513C87.4426 79.7691 109.058 99.8579 131 99.8579C152.943 99.8579 174.558 79.7691 196.5 63.698C218.443 47.627 240.058 35.5737 262 27.5382C283.943 19.5027 305.558 15.4849 327.5 13.476C349.443 11.4672 371.057 11.4672 382.193 11.4672H393V132H382.193C371.057 132 349.443 132 327.5 132C305.558 132 283.943 132 262 132C240.058 132 218.443 132 196.5 132C174.558 132 152.943 132 131 132C109.058 132 87.4426 132 65.5001 132C43.5576 132 21.9426 132 10.8076 132H0.00012207V95.8401Z" fill="#FEFEFE"/>
<path fill-rule="evenodd" clip-rule="evenodd" d="M0.00012207 97.3344L10.8076 91.5567C21.9426 85.7791 43.5576 74.2239 65.5001 78.0757C87.4426 81.9274 109.058 101.186 131 101.186C152.943 101.186 174.558 81.9274 196.5 66.5205C218.443 51.1135 240.058 39.5583 262 31.8548C283.943 24.1514 305.558 20.2996 327.5 18.3737C349.443 16.4479 371.057 16.4479 382.193 16.4479H393V132H382.193C371.057 132 349.443 132 327.5 132C305.558 132 283.943 132 262 132C240.058 132 218.443 132 196.5 132C174.558 132 152.943 132 131 132C109.058 132 87.4426 132 65.5001 132C43.5576 132 21.9426 132 10.8076 132H0.00012207V97.3344Z" fill="#FCA311"/>
<defs>
<filter id="filter0_d_40_273" x="-2.56" y="0.44" width="398.12" height="134.12" filterUnits="userSpaceOnUse" color-interpolation-filters="sRGB">
<feFlood flood-opacity="0" result="BackgroundImageFix"/>
<feColorMatrix in="SourceAlpha" type="matrix" values="0 0 0 0 0 0 0 0 0 0 0 0 0 0 0 0 0 0 127 0" result="hardAlpha"/>
<feOffset/>
<feGaussianBlur stdDeviation="1.28"/>
<feComposite in2="hardAlpha" operator="out"/>
<feColorMatrix type="matrix" values="0 0 0 0 0 0 0 0 0 0 0 0 0 0 0 0 0 0 0.15 0"/>
<feBlend mode="normal" in2="BackgroundImageFix" result="effect1_dropShadow_40_273"/>
<feBlend mode="normal" in="SourceGraphic" in2="effect1_dropShadow_40_273" result="shape"/>
</filter>
</defs>
</svg>
