<svg width="393" height="210" viewBox="0 0 393 210" fill="none" xmlns="http://www.w3.org/2000/svg">
<path fill-rule="evenodd" clip-rule="evenodd" d="M-50.3627 151.372L-34.9374 143.488C-19.0237 135.549 11.8271 119.781 45.0018 120.093C78.1766 120.404 112.699 136.905 145.414 133.183C178.13 129.461 208.063 105.626 238.943 85.7698C269.824 65.9132 300.674 50.1458 332.472 38.3564C364.27 26.567 396.039 18.8668 428.525 13.1278C461.012 7.3888 493.239 3.72215 509.841 1.83326L525.955 -6.30439e-05L539.722 121.008L523.609 122.841C507.007 124.73 474.779 128.396 442.063 132.119C409.347 135.841 377.12 139.507 344.404 143.23C311.688 146.952 279.461 150.619 246.745 154.341C214.029 158.063 181.802 161.73 149.086 165.452C116.37 169.174 84.1425 172.841 51.4267 176.563C18.7109 180.285 -13.5167 183.952 -30.1187 185.841L-46.2325 187.674L-50.3627 151.372Z" fill="#FCA311"/>
<path fill-rule="evenodd" clip-rule="evenodd" d="M-50.0916 153.755L-34.621 146.268C-18.6622 138.726 12.279 123.753 45.4236 123.799C78.5682 123.846 112.94 139.023 145.655 135.301C178.371 131.579 208.455 109.068 239.455 90.2706C270.456 71.4731 301.397 56.4999 333.255 45.24C365.114 33.9802 396.912 26.5447 429.414 20.9381C461.915 15.3314 494.143 11.6648 510.745 9.77589L526.859 7.94256L539.722 121.008L523.609 122.841C507.007 124.73 474.779 128.396 442.063 132.119C409.347 135.841 377.12 139.507 344.404 143.23C311.688 146.952 279.461 150.619 246.745 154.341C214.029 158.063 181.802 161.73 149.086 165.452C116.37 169.174 84.1425 172.841 51.4267 176.563C18.7109 180.285 -13.5166 183.952 -30.1187 185.841L-46.2325 187.674L-50.0916 153.755Z" fill="#FEFEFE"/>
<path fill-rule="evenodd" clip-rule="evenodd" d="M-49.9322 155.156L-34.435 147.903C-18.4496 140.595 12.5447 126.089 45.6716 125.98C78.7985 125.87 113.081 140.269 145.797 136.547C178.513 132.825 208.685 111.093 239.757 92.9182C270.828 74.7436 301.823 60.2376 333.716 49.2892C365.61 38.3408 397.426 31.0611 429.937 25.5323C462.447 20.0035 494.674 16.3369 511.276 14.448L527.39 12.6147L539.722 121.008L523.609 122.841C507.007 124.73 474.779 128.396 442.063 132.119C409.347 135.841 377.12 139.508 344.404 143.23C311.688 146.952 279.461 150.619 246.745 154.341C214.029 158.063 181.802 161.73 149.086 165.452C116.37 169.174 84.1425 172.841 51.4267 176.563C18.7109 180.285 -13.5166 183.952 -30.1187 185.841L-46.2325 187.674L-49.9322 155.156Z" fill="#FCA311"/>
<path fill-rule="evenodd" clip-rule="evenodd" d="M-49.6132 157.959L-34.0629 151.174C-18.0243 144.332 13.0763 130.761 46.1677 130.34C79.2592 129.92 113.365 142.761 146.081 139.039C178.797 135.317 209.146 115.142 240.359 98.2132C271.572 81.2845 302.673 67.7129 334.638 57.3875C366.602 47.062 398.454 40.0938 430.982 34.7207C463.51 29.3477 495.737 25.6811 512.34 23.7922L528.453 21.9588L539.722 154.341L512.34 154.341C495.737 156.23 469.216 161.73 436.5 165.452C403.784 169.174 374.216 172.841 341.5 176.563C308.784 180.285 273.075 172.841 240.359 176.563C207.643 180.285 178.797 182.118 146.081 185.841C113.365 189.563 78.8836 187.778 46.1677 191.5C13.4519 195.222 -10.3979 198.111 -27 200L-49.6132 206.5L-49.6132 157.959Z" fill="#FEFEFE"/>
</svg>
