<svg width="358" height="380" viewBox="0 0 358 380" fill="none" xmlns="http://www.w3.org/2000/svg">
<g clip-path="url(#clip0_54_110)">
<path d="M137.049 60.4664C146.422 60.4664 154.02 52.855 154.02 43.4658C154.02 34.0766 146.422 26.4651 137.049 26.4651C127.676 26.4651 120.077 34.0766 120.077 43.4658C120.077 52.855 127.676 60.4664 137.049 60.4664Z" fill="#FD6584"/>
<path d="M175.032 35.4157C174.553 33.8436 173.626 32.446 172.365 31.3951C171.103 30.3441 169.562 29.6856 167.932 29.5006C167.894 29.4974 167.856 29.4974 167.818 29.5006C167.772 29.4863 167.725 29.4757 167.678 29.4688C161.995 28.7302 155.677 30.5257 151.425 34.4351C149.846 35.8635 148.584 37.6074 147.719 39.5543C146.931 38.4758 145.892 37.6059 144.693 37.0201C143.493 36.4344 142.169 36.1503 140.836 36.1925C139.116 36.3064 137.472 36.9489 136.13 38.0325C134.788 39.1161 133.812 40.5881 133.335 42.2476C133.283 42.4503 133.297 42.6646 133.376 42.8585C133.455 43.0524 133.595 43.2155 133.774 43.3236C134.285 43.7616 134.893 44.0715 135.547 44.2278C136.952 44.527 138.369 44.8008 139.787 45.0491C142.558 45.533 145.344 45.9256 148.145 46.227C149.995 46.4244 151.849 46.5815 153.707 46.6982C157.546 46.9401 161.404 46.9974 165.25 46.8765C167.157 46.8128 168.987 46.7491 170.729 45.9087C171.998 45.2835 173.082 44.3376 173.875 43.1644C174.621 42.036 175.112 40.7574 175.312 39.4186C175.511 38.0799 175.416 36.7135 175.032 35.4157Z" fill="#E6E6E6"/>
<path d="M140.118 60.1837C140.085 59.4714 139.966 58.7657 139.762 58.0826C139.281 56.5106 138.352 55.1135 137.09 54.0628C135.827 53.012 134.286 52.3533 132.655 52.1675C132.619 52.1644 132.583 52.1644 132.547 52.1675C132.499 52.1539 132.45 52.1433 132.401 52.1357C129.256 51.7498 126.065 52.0784 123.064 53.0971C118.449 54.6443 114.4 57.7642 112.449 62.2212C111.66 61.1419 110.62 60.2717 109.419 59.6859C108.219 59.1001 106.894 58.8164 105.559 58.8593C103.839 58.9732 102.196 59.6158 100.853 60.6994C99.5113 61.783 98.5353 63.2549 98.0587 64.9145C98.0093 65.1172 98.0251 65.3305 98.1039 65.5237C98.1826 65.717 98.3203 65.8803 98.4973 65.9905C99.0093 66.4273 99.6168 66.737 100.271 66.8946C101.682 67.1939 103.093 67.4677 104.517 67.716C107.288 68.1999 110.072 68.5925 112.869 68.8939C118.55 69.5049 124.268 69.7219 129.979 69.5433C131.88 69.4797 133.717 69.416 135.458 68.5756C136.726 67.9501 137.808 67.0042 138.598 65.8313C139.713 64.1681 140.247 62.1826 140.118 60.1837Z" fill="#E6E6E6"/>
<path d="M265.771 274.728H250.3V32.797C249.257 32.0266 248.209 31.2626 247.147 30.5176C246.937 30.3712 246.728 30.2247 246.518 30.0783C234.282 21.5048 221.045 14.4615 207.103 9.10503L204.103 50.5549L204.103 50.5574H184.799V2.15851C183.541 1.84652 182.282 1.55363 181.011 1.27985V50.5574H108.118V6.10352e-05C106.854 0.235644 105.589 0.477596 104.33 0.738648V50.5574H84.3911L84.3909 50.5549L81.2446 7.08665C67.6764 11.7979 54.7094 18.0938 42.6118 25.8441C42.1922 26.1116 41.7727 26.379 41.3532 26.6591C40.5079 27.2067 39.6625 27.767 38.8298 28.3337V274.728H17.0472C14.2603 274.726 11.5156 275.409 9.0536 276.717C6.59162 278.026 4.48758 279.919 2.92595 282.231C1.36432 284.543 0.392786 287.204 0.0965351 289.98C-0.199715 292.756 0.188359 295.562 1.22673 298.153C1.53828 298.936 1.91018 299.694 2.33906 300.419C2.89299 301.365 3.53577 302.257 4.25864 303.081C5.85543 304.904 7.82227 306.364 10.0277 307.364C12.2331 308.364 14.6263 308.882 17.0473 308.881H265.771C270.292 308.881 274.628 307.082 277.825 303.88C281.022 300.677 282.818 296.334 282.818 291.805C282.818 287.276 281.022 282.932 277.825 279.73C274.628 276.527 270.292 274.728 265.771 274.728ZM199.946 108.102L187.914 274.728H100.58L88.5479 108.102H199.946ZM203.83 54.3515L200.861 95.455H184.799V54.3515H203.83ZM181.011 54.3515V95.455H152.006C151.426 94.3134 150.541 93.3548 149.45 92.6852C148.36 92.0157 147.106 91.6611 145.827 91.6608H142.039C140.76 91.6611 139.506 92.0157 138.415 92.6852C137.324 93.3548 136.44 94.3134 135.859 95.455H108.118V54.3515H181.011ZM104.33 95.455H87.6325L84.6644 54.3515H104.33V95.455Z" fill="#F2F2F2"/>
<path d="M1.50513 302.264C7.0269 308.817 12.9993 314.977 19.3787 320.696L260.646 321.333C267.026 315.613 272.998 309.454 278.52 302.9L1.50513 302.264Z" fill="#3F3D56"/>
<path d="M123.347 240.624V305.925H169.016V240.624C169.016 240.154 168.867 239.696 168.589 239.318C168.311 238.94 167.919 238.661 167.471 238.522C167.26 238.453 167.039 238.418 166.816 238.421H125.552C125.263 238.42 124.976 238.477 124.709 238.587C124.441 238.697 124.198 238.86 123.994 239.064C123.789 239.269 123.626 239.512 123.515 239.779C123.404 240.047 123.347 240.334 123.347 240.624ZM141.169 263.061C141.181 261.774 141.7 260.544 142.613 259.638C143.526 258.732 144.759 258.223 146.044 258.223C147.33 258.223 148.563 258.732 149.476 259.638C150.389 260.544 150.908 261.774 150.92 263.061V270.638C150.913 271.929 150.397 273.165 149.483 274.075C148.569 274.986 147.333 275.497 146.044 275.497C144.756 275.497 143.52 274.986 142.606 274.075C141.692 273.165 141.176 271.929 141.169 270.638V263.061Z" fill="#2F2E41"/>
<path d="M123.207 303.836V310.133C123.208 310.459 123.337 310.772 123.567 311.003C123.796 311.235 124.108 311.366 124.434 311.369H167.929C168.255 311.367 168.567 311.236 168.797 311.005C169.027 310.773 169.156 310.46 169.156 310.133V303.836H123.207Z" fill="#3F3D56"/>
<path d="M51.5027 142.239V261.469C51.5039 262.989 52.107 264.446 53.1795 265.52C54.2521 266.595 55.7064 267.199 57.2232 267.2H233.607C235.124 267.199 236.578 266.595 237.651 265.52C238.723 264.446 239.326 262.989 239.328 261.469V142.239C239.324 140.721 238.72 139.266 237.648 138.193C236.576 137.12 235.123 136.517 233.607 136.515H57.2232C55.7077 136.517 54.2548 137.12 53.1826 138.193C52.1104 139.266 51.5063 140.721 51.5027 142.239Z" fill="#3F3D56"/>
<path d="M55.6406 143.723V259.999C55.642 260.81 55.9646 261.589 56.5376 262.163C57.1107 262.737 57.8875 263.06 58.6979 263.061H232.139C232.949 263.06 233.726 262.737 234.299 262.163C234.872 261.589 235.195 260.81 235.196 259.999V143.723C235.196 142.91 234.874 142.13 234.301 141.555C233.728 140.979 232.95 140.655 232.139 140.654H58.6979C57.8865 140.655 57.109 140.979 56.5358 141.555C55.9626 142.13 55.6407 142.91 55.6406 143.723Z" fill="#FCA311"/>
<path d="M91.0064 312.852C91.1829 313.074 91.4073 313.253 91.6627 313.375C91.9181 313.497 92.1979 313.56 92.481 313.559H195.667C195.949 313.558 196.228 313.495 196.483 313.373C196.737 313.252 196.962 313.074 197.139 312.855C197.317 312.635 197.444 312.379 197.51 312.104C197.577 311.829 197.581 311.543 197.523 311.267L195.921 303.645C195.855 303.334 195.712 303.045 195.506 302.804C195.299 302.563 195.036 302.377 194.739 302.264C194.525 302.179 194.296 302.136 194.065 302.136H94.0764C93.8459 302.136 93.6173 302.179 93.4027 302.264C93.1062 302.377 92.8427 302.562 92.6362 302.804C92.4297 303.045 92.2868 303.334 92.2204 303.645L90.6187 311.267C90.5617 311.543 90.5669 311.829 90.634 312.103C90.701 312.377 90.8282 312.633 91.0064 312.852Z" fill="#2F2E41"/>
<path d="M94.0763 303.728C94.0449 303.728 94.0137 303.733 93.9844 303.744C93.9339 303.762 93.8884 303.791 93.8521 303.83C93.8157 303.87 93.7896 303.917 93.7761 303.969L92.1735 311.594C92.165 311.639 92.1663 311.684 92.1775 311.728C92.1887 311.771 92.2093 311.812 92.238 311.846L92.2451 311.855C92.2727 311.891 92.3085 311.92 92.3496 311.94C92.3906 311.959 92.4356 311.968 92.481 311.967H195.667C195.712 311.967 195.757 311.958 195.797 311.938C195.838 311.919 195.874 311.891 195.902 311.856C195.932 311.822 195.954 311.781 195.966 311.737C195.978 311.693 195.979 311.647 195.97 311.603L194.366 303.973C194.354 303.923 194.331 303.876 194.297 303.838C194.264 303.799 194.221 303.769 194.173 303.751C194.139 303.736 194.102 303.728 194.065 303.728H94.0763Z" fill="white"/>
<path d="M64.2744 156.671H226.562C226.731 156.667 226.892 156.598 227.01 156.477C227.128 156.356 227.194 156.194 227.194 156.025C227.194 155.856 227.128 155.693 227.01 155.573C226.892 155.452 226.731 155.382 226.562 155.378H64.2744C64.1057 155.382 63.9452 155.452 63.8272 155.573C63.7093 155.693 63.6432 155.856 63.6432 156.025C63.6432 156.194 63.7093 156.356 63.8272 156.477C63.9452 156.598 64.1057 156.667 64.2744 156.671Z" fill="#3F3D56"/>
<path d="M215.515 152.077C217.604 152.077 219.297 150.343 219.297 148.204C219.297 146.065 217.604 144.331 215.515 144.331C213.426 144.331 211.733 146.065 211.733 148.204C211.733 150.343 213.426 152.077 215.515 152.077Z" fill="#3F3D56"/>
<path d="M202.449 152.077C204.538 152.077 206.232 150.343 206.232 148.204C206.232 146.065 204.538 144.331 202.449 144.331C200.361 144.331 198.667 146.065 198.667 148.204C198.667 150.343 200.361 152.077 202.449 152.077Z" fill="#3F3D56"/>
<path d="M189.384 152.077C191.472 152.077 193.166 150.343 193.166 148.204C193.166 146.065 191.472 144.331 189.384 144.331C187.295 144.331 185.601 146.065 185.601 148.204C185.601 150.343 187.295 152.077 189.384 152.077Z" fill="#3F3D56"/>
<path d="M71.4494 145.996C71.4489 146.087 71.4665 146.178 71.5011 146.263C71.5357 146.347 71.5866 146.425 71.6509 146.49C71.7153 146.555 71.7918 146.606 71.8761 146.642C71.9604 146.677 72.0508 146.696 72.1422 146.696H81.4222C81.6056 146.692 81.7801 146.616 81.9084 146.484C82.0366 146.353 82.1084 146.176 82.1084 145.992C82.1084 145.809 82.0366 145.632 81.9084 145.501C81.7801 145.369 81.6056 145.293 81.4222 145.289H72.1422C71.9569 145.291 71.7801 145.367 71.6503 145.499C71.5205 145.632 71.4482 145.81 71.4494 145.996Z" fill="#3F3D56"/>
<path d="M71.4494 148.638C71.4489 148.73 71.4665 148.82 71.5011 148.905C71.5357 148.99 71.5866 149.067 71.6509 149.132C71.7153 149.197 71.7917 149.249 71.876 149.284C71.9603 149.32 72.0508 149.338 72.1422 149.338H81.4222C81.6058 149.334 81.7805 149.258 81.9089 149.127C82.0373 148.995 82.1092 148.819 82.1092 148.635C82.1092 148.451 82.0373 148.274 81.9089 148.143C81.7805 148.011 81.6058 147.935 81.4222 147.931H72.1422C71.9569 147.933 71.7801 148.009 71.6503 148.141C71.5205 148.274 71.4482 148.452 71.4494 148.638Z" fill="#3F3D56"/>
<path d="M71.4494 151.274C71.4482 151.46 71.5205 151.638 71.6503 151.77C71.7801 151.903 71.9569 151.978 72.1422 151.981H81.4222C81.6056 151.976 81.7801 151.9 81.9084 151.769C82.0366 151.637 82.1084 151.461 82.1084 151.277C82.1084 151.093 82.0366 150.917 81.9084 150.785C81.7801 150.654 81.6056 150.578 81.4222 150.574H72.1422C72.0508 150.574 71.9603 150.592 71.876 150.628C71.7917 150.663 71.7153 150.715 71.6509 150.78C71.5866 150.845 71.5357 150.922 71.5011 151.007C71.4665 151.092 71.4489 151.182 71.4494 151.274Z" fill="#3F3D56"/>
<path d="M202.381 176.405H88.4551C86.9584 176.407 85.5236 177.003 84.4653 178.064C83.407 179.124 82.8117 180.561 82.8099 182.06V237.605C82.8116 239.104 83.4069 240.542 84.4652 241.602C85.5235 242.662 86.9584 243.258 88.4551 243.26H202.381C203.878 243.258 205.313 242.662 206.371 241.602C207.43 240.542 208.025 239.104 208.027 237.605V182.06C208.025 180.561 207.43 179.124 206.371 178.064C205.313 177.003 203.878 176.407 202.381 176.405ZM206.755 182.06V198.266H166.711V177.679H202.381C203.541 177.68 204.653 178.142 205.473 178.964C206.293 179.785 206.754 180.899 206.755 182.06ZM125.396 220.126V199.539H165.44V220.126H125.396ZM165.44 221.4V241.987H125.396V221.4H165.44ZM124.125 220.126H84.0812V199.539H124.125V220.126ZM125.396 198.266V177.679H165.44V198.266H125.396ZM166.711 199.539H206.755V220.126H166.711V199.539ZM88.4551 177.679H124.125V198.266H84.0812V182.06C84.0825 180.899 84.5437 179.785 85.3637 178.964C86.1837 178.142 87.2954 177.68 88.4551 177.679ZM84.0812 237.605V221.4H124.125V241.987H88.4551C87.2954 241.985 86.1836 241.523 85.3636 240.702C84.5436 239.88 84.0824 238.767 84.0812 237.605ZM202.381 241.987H166.711V221.4H206.755V237.605C206.754 238.767 206.293 239.88 205.473 240.702C204.653 241.523 203.541 241.985 202.381 241.987Z" fill="#3F3D56"/>
<path d="M139.628 190.507C138.617 188.832 137.419 187.044 135.543 186.497C133.37 185.864 131.138 187.122 129.245 188.364C123.583 192.077 118.131 196.101 112.913 200.418L112.919 200.483L125.106 199.641C128.041 199.438 131.077 199.207 133.671 197.816C134.655 197.289 135.615 196.584 136.73 196.534C138.116 196.473 139.324 197.443 140.273 198.456C145.89 204.447 147.515 213.609 153.817 218.873C149.843 209.057 145.099 199.572 139.628 190.507Z" fill="white"/>
<path d="M174.153 241.324C173.532 240.538 173.278 240.354 172.665 239.561C167.677 233.098 162.988 226.417 158.599 219.517C155.617 214.831 152.784 210.055 150.098 205.189C148.82 202.876 147.576 200.544 146.368 198.195C145.43 196.373 144.513 194.54 143.617 192.696C143.361 192.17 143.112 191.641 142.864 191.111C142.281 189.864 141.708 188.611 141.093 187.381C140.457 185.904 139.484 184.598 138.252 183.568C137.666 183.122 136.965 182.852 136.232 182.789C135.199 182.795 134.188 183.085 133.309 183.628C126.653 187.133 120.441 191.424 114.805 196.41C109.16 201.376 104.115 206.987 99.7716 213.127C99.6387 213.317 99.3245 213.135 99.4586 212.944C99.9868 212.196 100.525 211.456 101.074 210.724C107.901 201.629 116.272 193.807 125.804 187.617C127.408 186.576 129.042 185.584 130.706 184.64C131.545 184.165 132.387 183.695 133.244 183.254C134.065 182.772 134.986 182.486 135.935 182.419C139.2 182.368 140.891 186.072 142.052 188.565C142.417 189.349 142.787 190.131 143.16 190.911C144.573 193.871 146.04 196.803 147.562 199.709C148.501 201.503 149.46 203.287 150.44 205.06C153.49 210.581 156.732 215.991 160.166 221.288C164.715 228.306 169.227 234.505 174.409 241.067C174.552 241.249 174.297 241.508 174.153 241.324Z" fill="white"/>
<path d="M114.482 194.581C114.293 194.369 114.104 194.158 113.913 193.946C112.407 192.278 110.792 190.629 108.724 189.673C107.738 189.202 106.662 188.952 105.57 188.94C104.443 188.971 103.332 189.214 102.295 189.656C101.802 189.853 101.32 190.077 100.845 190.315C100.302 190.589 99.7692 190.881 99.2387 191.175C98.2429 191.727 97.26 192.303 96.2901 192.903C94.3601 194.098 92.4906 195.384 90.6816 196.761C89.7438 197.476 88.8253 198.213 87.9262 198.974C87.09 199.681 86.2706 200.407 85.4682 201.152C85.2966 201.311 85.0405 201.054 85.212 200.895C85.4235 200.698 85.6374 200.502 85.8513 200.308C86.4555 199.761 87.0694 199.225 87.693 198.698C88.8302 197.737 89.9967 196.813 91.1927 195.926C93.0526 194.546 94.9764 193.26 96.9643 192.067C97.9577 191.471 98.9648 190.901 99.9855 190.355C100.294 190.191 100.605 190.03 100.921 189.877C101.637 189.515 102.38 189.212 103.144 188.97C104.227 188.62 105.373 188.507 106.503 188.64C107.594 188.799 108.645 189.163 109.601 189.714C111.631 190.85 113.206 192.608 114.738 194.323C114.893 194.498 114.638 194.756 114.482 194.581Z" fill="white"/>
<path d="M156.081 211.868L160.945 210.085L163.361 209.2C164.141 208.885 164.937 208.611 165.746 208.377C166.452 208.175 167.203 208.185 167.904 208.405C168.529 208.637 169.102 208.992 169.587 209.45C170.083 209.908 170.545 210.402 170.968 210.928C171.494 211.561 172.012 212.2 172.533 212.838C174.681 215.469 176.815 218.112 178.934 220.766C181.054 223.421 183.16 226.086 185.251 228.763C187.348 231.446 189.43 234.141 191.498 236.846C191.751 237.178 192.004 237.509 192.257 237.841C192.397 238.025 192.712 237.844 192.57 237.658C190.487 234.925 188.39 232.203 186.278 229.493C184.16 226.776 182.029 224.07 179.882 221.376C177.736 218.682 175.575 216 173.399 213.329C172.857 212.664 172.314 211.999 171.771 211.336C171.312 210.776 170.858 210.21 170.355 209.688C169.927 209.171 169.401 208.744 168.808 208.431C168.214 208.118 167.565 207.925 166.897 207.863C166.088 207.892 165.291 208.067 164.545 208.381C163.731 208.676 162.92 208.976 162.108 209.274L157.209 211.069L155.984 211.517C155.767 211.597 155.861 211.948 156.081 211.868Z" fill="white"/>
<path d="M108.084 191.772C106.834 191.155 105.442 190.882 104.052 190.981C102.662 191.081 101.323 191.549 100.174 192.338C104.507 193.087 108.793 194.089 113.009 195.339C111.258 194.311 109.889 192.701 108.084 191.772Z" fill="white"/>
<path d="M100.149 192.334L99.6735 192.721C99.8345 192.586 100.002 192.459 100.174 192.338L100.149 192.334Z" fill="white"/>
<path d="M169.404 211.885C168.978 211.257 168.385 210.76 167.691 210.453L167.023 210.479C172.113 219.49 178.989 227.364 187.227 233.617L169.404 211.885Z" fill="white"/>
<path d="M166.276 202.019C168.403 202.019 170.127 200.292 170.127 198.162C170.127 196.031 168.403 194.304 166.276 194.304C164.149 194.304 162.425 196.031 162.425 198.162C162.425 200.292 164.149 202.019 166.276 202.019Z" fill="white"/>
<path d="M222.162 241.032C222.921 241.03 223.647 240.728 224.184 240.191C224.72 239.654 225.021 238.926 225.023 238.166V178.952C225.023 178.192 224.721 177.464 224.185 176.926C223.648 176.389 222.921 176.087 222.162 176.087C221.404 176.087 220.676 176.389 220.14 176.926C219.603 177.464 219.302 178.192 219.302 178.952V238.166C219.303 238.926 219.605 239.654 220.141 240.191C220.677 240.728 221.404 241.03 222.162 241.032Z" fill="#3F3D56"/>
<path d="M222.162 241.032C222.921 241.03 223.647 240.728 224.184 240.191C224.72 239.654 225.021 238.926 225.023 238.166V225.61C224.693 225.16 224.262 224.795 223.766 224.542C223.269 224.29 222.719 224.159 222.162 224.159C221.605 224.159 221.056 224.29 220.559 224.542C220.062 224.795 219.631 225.16 219.302 225.61V238.166C219.303 238.926 219.605 239.654 220.141 240.191C220.677 240.728 221.404 241.03 222.162 241.032Z" fill="#2F2E41"/>
<path d="M222.162 228.934C222.978 228.933 223.759 228.608 224.336 228.03C224.913 227.453 225.237 226.669 225.238 225.853V212.349C224.884 211.865 224.421 211.472 223.886 211.2C223.352 210.929 222.761 210.788 222.162 210.788C221.563 210.788 220.972 210.929 220.438 211.2C219.904 211.472 219.44 211.865 219.086 212.349V225.853C219.087 226.669 219.412 227.453 219.988 228.03C220.565 228.608 221.347 228.933 222.162 228.934Z" fill="#FCA311"/>
<path d="M222.162 226.479C222.757 226.478 223.327 226.241 223.748 225.819C224.168 225.398 224.405 224.827 224.406 224.231V214.382C224.148 214.029 223.81 213.742 223.42 213.544C223.03 213.346 222.599 213.243 222.162 213.243C221.725 213.243 221.294 213.346 220.905 213.544C220.515 213.742 220.177 214.029 219.919 214.382V224.231C219.919 224.827 220.156 225.398 220.577 225.819C220.997 226.241 221.567 226.478 222.162 226.479Z" fill="#3F3D56"/>
<path d="M133.924 307.554C133.422 307.103 133.118 306.472 133.081 305.798C133.043 305.123 133.274 304.462 133.722 303.958L158.712 275.948C158.935 275.699 159.204 275.495 159.505 275.35C159.806 275.205 160.132 275.121 160.465 275.102C160.799 275.083 161.132 275.131 161.448 275.241C161.763 275.352 162.053 275.523 162.302 275.746C162.551 275.969 162.754 276.239 162.898 276.54C163.043 276.841 163.127 277.168 163.146 277.502C163.165 277.836 163.118 278.171 163.008 278.486C162.897 278.802 162.726 279.093 162.503 279.342L137.514 307.352C137.064 307.855 136.433 308.159 135.76 308.197C135.087 308.235 134.427 308.003 133.924 307.554Z" fill="#FCA311"/>
<path d="M341.231 353.671C341.231 358.313 340.138 361.866 340.271 364.706C332.774 367.983 325.066 370.753 317.198 372.996C316.308 373.25 315.419 373.492 314.522 373.734C309.673 358.861 304.816 345.241 302.903 343.796C298.524 340.504 296.331 354.123 296.331 350.832C296.331 347.54 298.524 347.54 293.051 343.153C287.572 338.766 290.858 319.022 290.858 319.022L283.193 299.277L291.767 267.785L302.903 226.877H313.855C313.855 226.877 314.179 227.112 314.719 227.552C317.459 229.793 325.722 237.281 324.807 245.526C324.533 247.984 325.143 255.128 326.205 264.64C329.434 293.362 336.852 324.586 336.852 332.825C336.852 343.796 341.231 347.088 341.231 353.671Z" fill="#E6E6E6"/>
<path d="M332.048 264.532C332.035 264.501 332.029 264.475 332.016 264.45C331.771 263.787 331.484 263.141 331.158 262.514C329.308 259.031 331.266 253.683 329.181 247.774C325.812 238.198 321.706 232.551 315.687 227.489C315.509 227.336 315.331 227.189 315.147 227.037L315.14 227.03C311.123 223.726 306.28 220.638 300.267 216.792C299.015 215.99 297.705 215.156 296.345 214.277C294.591 213.15 294.686 209.393 294.788 205.42C294.902 201.008 295.023 196.436 292.862 193.584L292.722 193.399L292.5 193.342C285.09 191.874 277.533 191.29 269.986 191.604H269.98C266.775 191.723 263.594 192.19 260.49 192.998C260.261 193.062 260.032 193.125 259.81 193.202C259.638 193.246 259.467 193.304 259.295 193.361L259.155 193.412L259.047 193.514C256.956 195.609 256.473 199.365 256.244 203.281V203.287C256.2 204 256.161 204.714 256.13 205.427C255.952 209.234 255.786 212.832 254.388 214.392C251.269 217.931 247.499 220.837 243.284 222.949C236.718 226.196 231.525 226.094 231.449 226.094L230.845 226.075L230.788 226.674C226.427 234.996 226.592 256.465 226.459 279.457C226.453 280.737 226.444 282.023 226.434 283.315C226.357 294.025 226.154 304.919 225.353 314.845C225.003 319.111 224.552 323.193 223.948 327.007C221.012 345.579 207.708 330.158 201.346 342.517C201.555 343.732 201.907 344.918 202.394 346.051C203.125 346.484 203.875 346.904 204.619 347.324C207.918 349.164 211.278 350.881 214.7 352.475C214.891 352.564 215.081 352.653 215.272 352.736C221.548 355.645 228.017 358.117 234.633 360.135C235.923 360.529 237.214 360.905 238.517 361.262C250.043 364.449 261.911 366.23 273.863 366.565C273.912 366.56 273.961 366.558 274.01 366.559C288.145 366.167 302.188 364.14 315.859 360.517C316.049 360.466 316.24 360.415 316.431 360.364C317.327 360.122 318.217 359.88 319.107 359.625C326.974 357.383 334.683 354.613 342.18 351.335C342.187 351.615 342.215 351.894 342.262 352.169C342.269 352.259 342.281 352.349 342.3 352.437C342.313 352.335 342.326 352.233 342.332 352.131C342.37 351.832 342.402 351.526 342.434 351.221C346.324 313.222 338.245 280.96 332.048 264.532Z" fill="#3F3D56"/>
<path d="M244.692 171.403C248.572 178.509 254.751 184.079 262.214 187.197C269.676 190.315 277.976 190.795 285.746 188.556C293.517 186.318 300.295 181.496 304.964 174.883C309.633 168.271 311.914 160.263 311.433 152.178C310.952 144.093 307.736 136.413 302.315 130.403C296.895 124.394 289.593 120.412 281.612 119.115C273.631 117.818 265.447 119.282 258.407 123.266C251.368 127.251 245.893 133.518 242.884 141.036C242.721 141.444 242.575 141.852 242.428 142.276C240.727 147.015 240.049 152.062 240.44 157.083C240.83 162.104 242.279 166.984 244.692 171.403Z" fill="#FFB6B6"/>
<path d="M239.577 142.276C241.109 137.984 240.441 140.22 241.988 135.945C240.978 139.73 242.575 141.852 242.428 142.276H284.797V117.604C272.384 112.676 260.249 108.482 252.919 117.604C246.386 117.604 240.122 120.204 235.503 124.83C230.884 129.457 228.289 135.733 228.289 142.276H239.577Z" fill="#2F2E41"/>
<path d="M254.596 210.858C254.629 210.401 254.678 209.928 254.743 209.471C255.199 206.11 256.339 202.879 257.496 199.681C258.718 196.238 259.956 192.778 261.194 189.335C259.599 195.585 260.086 202.186 262.578 208.133C269.729 202.553 265.217 189.792 274.567 189.792C297.047 189.792 320.178 171.533 320.178 148.999C320.178 126.48 310.534 109.641 288.055 109.641C265.559 109.641 247.315 119.953 246.875 142.472C274.567 148.999 249.367 208.574 254.596 210.858Z" fill="#2F2E41"/>
<path d="M317.369 145.547C331.763 145.547 343.432 133.858 343.432 119.439C343.432 105.02 331.763 93.3313 317.369 93.3313C302.974 93.3313 291.306 105.02 291.306 119.439C291.306 133.858 302.974 145.547 317.369 145.547Z" fill="#2F2E41"/>
<path d="M358 269.168C357.911 270.511 357.833 271.942 357.765 273.459C356.417 302.041 357.581 340.518 348.498 361.395C346.464 362.51 344.408 363.575 342.332 364.592C342.249 364.63 342.173 364.668 342.103 364.706C341.544 364.98 340.984 365.247 340.425 365.502C340.405 365.52 340.381 365.533 340.355 365.54C334.213 368.448 327.883 370.938 321.408 372.996C320.613 373.251 319.812 373.493 319.011 373.735C318.84 373.786 318.668 373.837 318.496 373.888C306.297 377.502 293.685 379.532 280.97 379.93C280.309 379.949 279.66 379.962 279.031 379.975C278.808 379.981 278.592 379.987 278.376 379.987C277.664 379.994 276.959 380 276.247 380C274.811 380 273.38 379.979 271.957 379.936C260.004 379.601 248.136 377.82 236.61 374.633C235.307 374.276 234.017 373.9 232.726 373.506C226.111 371.488 219.642 369.016 213.365 366.107C213.175 366.024 212.984 365.935 212.793 365.846C209.374 364.254 206.013 362.537 202.712 360.695C201.969 360.275 201.219 359.855 200.488 359.422C200 358.289 199.648 357.103 199.439 355.888C197.996 348.941 196.839 353.627 196.013 339.174C195.257 325.924 194.773 312.636 194.596 305.04C194.538 303.015 194.519 301.392 194.513 300.284C195.187 295.458 206.018 289.982 221.813 284.78C223.306 284.29 224.851 283.799 226.434 283.316C230.705 281.998 235.269 280.705 240.036 279.457C252.176 276.273 265.658 273.351 279.037 270.938C285.641 269.754 292.22 268.69 298.608 267.786C309.814 266.194 320.416 265.093 329.486 264.641C330.357 264.596 331.209 264.558 332.048 264.533C332.95 264.494 333.834 264.469 334.698 264.45C347.767 264.163 356.691 265.526 358 269.168Z" fill="#2F2E41"/>
<path opacity="0.2" d="M358 269.168C357.911 270.511 357.833 271.942 357.765 273.459C347.862 262.775 241.18 310.503 196.013 339.174C195.256 325.924 194.773 312.636 194.595 305.04C194.538 303.015 194.519 301.392 194.513 300.284C195.187 295.458 206.017 289.982 221.813 284.78C223.306 284.29 224.851 283.799 226.434 283.315C230.705 281.998 235.269 280.705 240.036 279.457C252.176 276.273 265.657 273.351 279.037 270.938C285.641 269.754 292.22 268.69 298.608 267.786C309.814 266.194 320.416 265.093 329.486 264.641C330.357 264.596 331.209 264.558 332.048 264.532C332.95 264.494 333.834 264.469 334.698 264.45C347.767 264.163 356.691 265.526 358 269.168Z" fill="black"/>
<path d="M141.044 302.285C142.044 303.548 143.309 304.577 144.749 305.297C146.189 306.018 147.769 306.414 149.379 306.457C150.988 306.5 152.587 306.189 154.063 305.545C155.539 304.902 156.857 303.943 157.923 302.734L194.12 317.626L190.214 297.636L156.439 286.559C154.294 284.9 151.616 284.086 148.912 284.273C146.208 284.46 143.666 285.633 141.769 287.572C139.871 289.51 138.749 292.079 138.615 294.79C138.482 297.502 139.346 300.169 141.044 302.285Z" fill="#FFB6B6"/>
<path d="M261.452 219.041L261.253 219.02L240.145 220.555C237.465 220.75 234.857 221.513 232.495 222.795C230.132 224.077 228.068 225.847 226.441 227.989C225.684 228.981 225.029 230.047 224.486 231.171L224.481 231.174C222.661 234.904 222.113 239.128 222.919 243.2L232.857 293.311L208.946 291.135L200.218 292.629L189.918 288.467L168.783 288.827L168.293 290.449L163.859 305.172L163.511 306.329L195.785 326.702L205.142 323.85L209.55 327.242L209.761 327.248L218.502 327.421L255.78 328.153L265.97 310.07L267.562 307.234C279.396 280.678 282.316 262.139 281.39 249.367C280.904 242.619 279.346 237.489 277.461 233.623C271.631 221.677 261.862 219.142 261.452 219.041Z" fill="#3F3D56"/>
<path d="M320.665 142.618C315.722 141.505 311.14 139.161 307.343 135.801C303.546 132.442 300.657 128.176 298.944 123.401C297.415 118.958 296.838 114.079 294.271 110.125C298.181 104.746 301.317 98.8431 303.586 92.5894C304.464 90.1683 306.521 85.7733 303.034 84.4415C300.256 83.3804 297.1 85.9413 295.454 87.9621C294.203 89.4934 293.305 91.283 292.826 93.2027C292.259 90.6908 291.691 88.1789 291.123 85.6671C291.051 85.426 290.888 85.2222 290.67 85.098C290.451 84.9737 290.194 84.9386 289.95 85C285.296 85.7947 281.921 90.1114 281.335 94.658C281.015 96.9988 281.546 99.3767 282.832 101.357C284.327 103.636 286.517 105.269 288.6 106.967C290.815 108.772 292.693 110.695 293.884 113.336C295.122 116.08 295.68 119.083 296.501 121.965C298.06 127.499 301.08 132.51 305.244 136.469C309.407 140.428 314.56 143.189 320.158 144.46C321.354 144.722 321.865 142.881 320.665 142.618ZM294.384 96.9564C294.235 94.557 294.868 92.1738 296.188 90.1661C296.849 89.1481 297.677 88.2496 298.637 87.5086C299.547 86.8118 300.89 85.8891 302.095 86.145C303.657 86.477 303.029 88.2238 302.697 89.2771C302.259 90.6669 301.778 92.0419 301.253 93.4021C300.23 96.0436 299.044 98.6183 297.7 101.111C297.002 102.409 296.256 103.679 295.477 104.928C294.941 102.553 294.404 100.179 293.867 97.8043C294.036 97.7422 294.179 97.6246 294.273 97.4707C294.367 97.3167 294.406 97.1355 294.384 96.9564ZM283.249 97.3365C282.937 95.1667 283.389 92.9559 284.528 91.084C285.666 89.212 287.42 87.7958 289.488 87.0787C291.002 93.7728 292.515 100.467 294.029 107.161C293.716 107.622 293.394 108.077 293.071 108.531C292.987 108.434 292.909 108.333 292.821 108.237C289.647 104.776 284.111 102.417 283.249 97.3365Z" fill="#FCA311"/>
</g>
<defs>
<clipPath id="clip0_54_110">
<rect width="358" height="380" fill="white"/>
</clipPath>
</defs>
</svg>
