<svg width="204" height="216" viewBox="0 0 204 216" fill="none" xmlns="http://www.w3.org/2000/svg">
<g clip-path="url(#clip0_39_84)">
<path d="M77.9264 34.3704C83.256 34.3704 87.5764 30.0439 87.5764 24.7069C87.5764 19.3698 83.256 15.0433 77.9264 15.0433C72.5968 15.0433 68.2764 19.3698 68.2764 24.7069C68.2764 30.0439 72.5968 34.3704 77.9264 34.3704Z" fill="#FD6584"/>
<path d="M99.5238 20.131C99.2517 19.2374 98.7245 18.443 98.0072 17.8456C97.2899 17.2482 96.4138 16.8739 95.4868 16.7688C95.4652 16.7669 95.4434 16.7669 95.4218 16.7688C95.3958 16.7606 95.3692 16.7546 95.3423 16.7507C92.1112 16.3308 88.5188 17.3514 86.1009 19.5736C85.2033 20.3856 84.4855 21.3768 83.9938 22.4835C83.5456 21.8704 82.9549 21.376 82.2729 21.043C81.5909 20.71 80.8381 20.5486 80.0797 20.5725C79.1017 20.6373 78.1673 21.0025 77.4041 21.6185C76.6409 22.2344 76.086 23.0711 75.815 24.0144C75.7852 24.1296 75.7934 24.2514 75.8384 24.3617C75.8833 24.4719 75.9626 24.5646 76.0644 24.626C76.3551 24.875 76.7007 25.0511 77.0728 25.14C77.8715 25.3101 78.6774 25.4657 79.4834 25.6068C81.0592 25.8819 82.6434 26.1051 84.236 26.2764C85.2877 26.3886 86.3418 26.4779 87.3984 26.5442C89.5813 26.6817 91.7751 26.7143 93.9617 26.6456C95.0459 26.6094 96.0868 26.5732 97.077 26.0954C97.7987 25.7401 98.4153 25.2024 98.8661 24.5356C99.2904 23.8941 99.5692 23.1673 99.6829 22.4064C99.7965 21.6454 99.7422 20.8687 99.5238 20.131Z" fill="#E6E6E6"/>
<path d="M79.6713 34.2097C79.653 33.8048 79.5851 33.4037 79.4689 33.0154C79.1955 32.1218 78.6675 31.3277 77.9497 30.7304C77.2319 30.1331 76.3556 29.7587 75.4283 29.6531C75.4079 29.6513 75.3873 29.6513 75.3669 29.6531C75.3396 29.6454 75.3118 29.6393 75.2838 29.635C73.4955 29.4157 71.6809 29.6025 69.9746 30.1815C67.3507 31.061 65.0485 32.8344 63.9389 35.3678C63.4903 34.7544 62.899 34.2597 62.2163 33.9267C61.5336 33.5937 60.7802 33.4325 60.0212 33.4569C59.0431 33.5216 58.1088 33.8869 57.3456 34.5028C56.5824 35.1188 56.0275 35.9554 55.7565 36.8987C55.7284 37.014 55.7374 37.1352 55.7822 37.2451C55.827 37.3549 55.9053 37.4478 56.0059 37.5104C56.297 37.7587 56.6425 37.9347 57.0142 38.0243C57.8166 38.1944 58.6189 38.35 59.4285 38.4912C61.0043 38.7662 62.5873 38.9894 64.1775 39.1607C67.4082 39.508 70.6591 39.6314 73.9068 39.5299C74.9874 39.4937 76.0319 39.4575 77.0222 38.9798C77.7427 38.6243 78.3581 38.0866 78.8075 37.4199C79.4411 36.4745 79.7448 35.3459 79.6713 34.2097Z" fill="#E6E6E6"/>
<path d="M151.118 156.161H142.321V18.6425C141.729 18.2046 141.132 17.7703 140.529 17.3469C140.41 17.2636 140.29 17.1804 140.171 17.0972C133.213 12.2238 125.687 8.22023 117.76 5.17551L116.054 28.7365L116.054 28.7379H105.078V1.22697C104.362 1.04963 103.646 0.883143 102.924 0.727518V28.7379H61.4766V6.10352e-05C60.7574 0.133971 60.0382 0.271502 59.3226 0.419889V28.7379H47.9851L47.985 28.7365L46.196 4.02823C38.4811 6.7062 31.108 10.2849 24.2292 14.6904C23.9907 14.8424 23.7521 14.9944 23.5136 15.1536C23.0329 15.4649 22.5522 15.7834 22.0788 16.1055V156.161H9.69311C8.10848 156.16 6.54781 156.549 5.14791 157.292C3.74802 158.036 2.55165 159.112 1.66371 160.426C0.77576 161.74 0.223339 163.253 0.0548902 164.831C-0.113559 166.408 0.107102 168.004 0.697524 169.476C0.874673 169.921 1.08614 170.352 1.33 170.765C1.64497 171.303 2.01045 171.809 2.42148 172.277C3.32942 173.314 4.44777 174.144 5.70178 174.712C6.95579 175.281 8.31657 175.575 9.69314 175.575H151.118C153.689 175.575 156.155 174.552 157.972 172.732C159.79 170.911 160.811 168.442 160.811 165.868C160.811 163.294 159.79 160.825 157.972 159.004C156.155 157.184 153.689 156.161 151.118 156.161ZM113.69 61.4476L106.849 156.161H57.1902L50.3487 61.4476H113.69ZM115.898 30.8946L114.211 54.2586H105.078V30.8946H115.898ZM102.924 30.8946V54.2586H86.4314C86.1012 53.6097 85.5982 53.0649 84.9781 52.6843C84.358 52.3037 83.6448 52.1021 82.9175 52.102H80.7638C80.0365 52.1021 79.3234 52.3037 78.7033 52.6843C78.0832 53.0649 77.5802 53.6097 77.2499 54.2586H61.4766V30.8946H102.924ZM59.3226 54.2586H49.8282L48.1405 30.8946H59.3226V54.2586Z" fill="#F2F2F2"/>
<path d="M0.855774 171.813C3.99547 175.538 7.39141 179.039 11.0187 182.291L148.204 182.652C151.832 179.401 155.228 175.9 158.367 172.175L0.855774 171.813Z" fill="#3F3D56"/>
<path d="M70.1354 136.776V173.894H96.103V136.776C96.1035 136.509 96.0184 136.248 95.8603 136.034C95.7022 135.819 95.4795 135.66 95.2248 135.581C95.1047 135.541 94.9789 135.522 94.8525 135.523H71.3895C71.225 135.523 71.0621 135.555 70.91 135.618C70.758 135.681 70.6197 135.773 70.5033 135.889C70.3868 136.005 70.2943 136.144 70.2312 136.296C70.1681 136.448 70.1355 136.611 70.1354 136.776ZM80.2695 149.53C80.2763 148.798 80.5714 148.098 81.0905 147.584C81.6096 147.069 82.3108 146.78 83.0415 146.78C83.7722 146.78 84.4733 147.069 84.9925 147.584C85.5116 148.098 85.8067 148.798 85.8135 149.53V153.836C85.8098 154.57 85.5161 155.273 84.9967 155.79C84.4772 156.308 83.7742 156.598 83.0415 156.598C82.3087 156.598 81.6058 156.308 81.0863 155.79C80.5669 155.273 80.2732 154.57 80.2695 153.836V149.53Z" fill="#2F2E41"/>
<path d="M70.0558 172.707V176.286C70.0564 176.472 70.13 176.649 70.2606 176.781C70.3912 176.912 70.5682 176.987 70.7534 176.988H95.485C95.6703 176.987 95.8477 176.913 95.9785 176.782C96.1092 176.65 96.1825 176.472 96.1825 176.286V172.707H70.0558Z" fill="#3F3D56"/>
<path d="M29.2847 80.8517V148.625C29.2854 149.488 29.6283 150.317 30.2381 150.927C30.848 151.538 31.6749 151.881 32.5374 151.882H132.83C133.692 151.881 134.519 151.538 135.129 150.927C135.739 150.317 136.082 149.488 136.083 148.625V80.8517C136.081 79.9888 135.737 79.1618 135.127 78.552C134.518 77.9422 133.692 77.5991 132.83 77.598H32.5374C31.6757 77.5991 30.8495 77.9422 30.2399 78.552C29.6302 79.1618 29.2867 79.9888 29.2847 80.8517Z" fill="#3F3D56"/>
<path d="M31.6375 81.6949V147.789C31.6382 148.25 31.8217 148.692 32.1475 149.019C32.4733 149.345 32.915 149.529 33.3759 149.53H131.995C132.456 149.529 132.898 149.345 133.223 149.019C133.549 148.692 133.733 148.25 133.733 147.789V81.6949C133.733 81.2329 133.55 80.7897 133.224 80.4627C132.899 80.1357 132.456 79.9514 131.995 79.9504H33.3759C32.9145 79.9514 32.4724 80.1357 32.1465 80.4627C31.8206 80.7897 31.6375 81.2329 31.6375 81.6949Z" fill="#FCA311"/>
<path d="M51.7466 177.832C51.847 177.958 51.9746 178.059 52.1198 178.129C52.265 178.199 52.4241 178.234 52.5851 178.233H111.257C111.418 178.233 111.576 178.197 111.721 178.128C111.866 178.059 111.993 177.958 112.094 177.833C112.195 177.709 112.267 177.563 112.305 177.407C112.343 177.25 112.345 177.088 112.312 176.931L111.402 172.598C111.364 172.422 111.283 172.257 111.165 172.12C111.048 171.983 110.898 171.877 110.729 171.813C110.607 171.765 110.477 171.74 110.346 171.741H53.4922C53.3611 171.74 53.2312 171.765 53.1091 171.813C52.9406 171.877 52.7907 171.983 52.6733 172.12C52.5559 172.257 52.4746 172.422 52.4369 172.598L51.5261 176.931C51.4937 177.088 51.4967 177.25 51.5348 177.406C51.573 177.562 51.6453 177.707 51.7466 177.832Z" fill="#2F2E41"/>
<path d="M53.4922 172.646C53.4743 172.645 53.4566 172.648 53.4399 172.655C53.4112 172.665 53.3854 172.681 53.3647 172.704C53.344 172.726 53.3292 172.753 53.3215 172.782L52.4102 177.117C52.4054 177.142 52.4062 177.168 52.4125 177.193C52.4189 177.217 52.4306 177.24 52.4469 177.26L52.451 177.265C52.4667 177.285 52.487 177.302 52.5104 177.313C52.5337 177.324 52.5593 177.329 52.5851 177.329H111.257C111.283 177.329 111.308 177.323 111.331 177.312C111.354 177.301 111.375 177.285 111.391 177.265C111.408 177.246 111.42 177.223 111.427 177.198C111.434 177.173 111.434 177.147 111.429 177.121L110.518 172.784C110.511 172.756 110.497 172.73 110.478 172.708C110.459 172.686 110.435 172.669 110.408 172.658C110.388 172.65 110.367 172.646 110.346 172.646H53.4922Z" fill="white"/>
<path d="M36.5467 89.0552H128.824C128.92 89.0531 129.011 89.0134 129.079 88.9447C129.146 88.876 129.183 88.7838 129.183 88.6877C129.183 88.5917 129.146 88.4994 129.079 88.4307C129.011 88.362 128.92 88.3224 128.824 88.3203H36.5467C36.4507 88.3224 36.3595 88.362 36.2924 88.4307C36.2253 88.4994 36.1877 88.5917 36.1877 88.6877C36.1877 88.7838 36.2253 88.876 36.2924 88.9447C36.3595 89.0134 36.4507 89.0531 36.5467 89.0552Z" fill="#3F3D56"/>
<path d="M122.543 86.444C123.731 86.444 124.693 85.4583 124.693 84.2424C124.693 83.0265 123.731 82.0408 122.543 82.0408C121.355 82.0408 120.392 83.0265 120.392 84.2424C120.392 85.4583 121.355 86.444 122.543 86.444Z" fill="#3F3D56"/>
<path d="M115.114 86.444C116.301 86.444 117.264 85.4583 117.264 84.2424C117.264 83.0265 116.301 82.0408 115.114 82.0408C113.926 82.0408 112.963 83.0265 112.963 84.2424C112.963 85.4583 113.926 86.444 115.114 86.444Z" fill="#3F3D56"/>
<path d="M107.684 86.444C108.872 86.444 109.835 85.4583 109.835 84.2424C109.835 83.0265 108.872 82.0408 107.684 82.0408C106.497 82.0408 105.534 83.0265 105.534 84.2424C105.534 85.4583 106.497 86.444 107.684 86.444Z" fill="#3F3D56"/>
<path d="M40.6264 82.987C40.6261 83.039 40.6361 83.0906 40.6558 83.1388C40.6754 83.187 40.7044 83.2308 40.741 83.2678C40.7775 83.3048 40.821 83.3341 40.869 83.3543C40.9169 83.3744 40.9683 83.3849 41.0203 83.3851H46.2969C46.4013 83.3827 46.5005 83.3395 46.5734 83.2647C46.6463 83.19 46.6871 83.0897 46.6871 82.9852C46.6871 82.8807 46.6463 82.7804 46.5734 82.7056C46.5005 82.6309 46.4013 82.5877 46.2969 82.5853H41.0203C40.915 82.5865 40.8144 82.6295 40.7406 82.7048C40.6668 82.7801 40.6257 82.8815 40.6264 82.987Z" fill="#3F3D56"/>
<path d="M40.6264 84.489C40.6261 84.541 40.6361 84.5926 40.6558 84.6408C40.6754 84.6889 40.7044 84.7328 40.741 84.7697C40.7775 84.8067 40.821 84.8361 40.869 84.8562C40.9169 84.8764 40.9683 84.8868 41.0203 84.8871H46.2969C46.4013 84.8848 46.5007 84.8416 46.5737 84.7669C46.6467 84.6921 46.6876 84.5917 46.6876 84.4871C46.6876 84.3826 46.6467 84.2822 46.5737 84.2074C46.5007 84.1327 46.4013 84.0895 46.2969 84.0872H41.0203C40.915 84.0885 40.8144 84.1315 40.7406 84.2067C40.6668 84.282 40.6257 84.3835 40.6264 84.489Z" fill="#3F3D56"/>
<path d="M40.6264 85.9873C40.6257 86.0928 40.6668 86.1943 40.7406 86.2696C40.8144 86.3448 40.915 86.3878 41.0203 86.3891H46.2969C46.4013 86.3866 46.5005 86.3434 46.5734 86.2687C46.6463 86.194 46.6871 86.0936 46.6871 85.9892C46.6871 85.8847 46.6463 85.7843 46.5734 85.7096C46.5005 85.6349 46.4013 85.5917 46.2969 85.5892H41.0203C40.9683 85.5895 40.9169 85.5999 40.869 85.6201C40.821 85.6402 40.7775 85.6696 40.741 85.7066C40.7044 85.7435 40.6754 85.7874 40.6558 85.8355C40.6361 85.8837 40.6261 85.9353 40.6264 85.9873Z" fill="#3F3D56"/>
<path d="M115.075 100.273H50.2959C49.4449 100.274 48.629 100.612 48.0273 101.215C47.4255 101.818 47.087 102.635 47.0861 103.487V135.06C47.087 135.912 47.4255 136.729 48.0272 137.331C48.629 137.934 49.4449 138.273 50.2959 138.274H115.075C115.926 138.273 116.742 137.934 117.344 137.331C117.945 136.729 118.284 135.912 118.285 135.06V103.487C118.284 102.635 117.945 101.818 117.343 101.215C116.742 100.612 115.926 100.274 115.075 100.273ZM117.562 103.487V112.698H94.7928V100.996H115.075C115.734 100.997 116.366 101.26 116.833 101.727C117.299 102.194 117.561 102.827 117.562 103.487ZM71.3008 125.124V113.422H94.0699V125.124H71.3008ZM94.0699 125.848V137.55H71.3008V125.848H94.0699ZM70.578 125.124H47.8089V113.422H70.578V125.124ZM71.3008 112.698V100.996H94.0699V112.698H71.3008ZM94.7928 113.422H117.562V125.124H94.7928V113.422ZM50.2959 100.996H70.578V112.698H47.8089V103.487C47.8096 102.827 48.0719 102.194 48.5381 101.727C49.0044 101.26 49.6365 100.997 50.2959 100.996ZM47.8089 135.06V125.848H70.578V137.55H50.2959C49.6365 137.55 49.0043 137.287 48.5381 136.82C48.0718 136.353 47.8096 135.72 47.8089 135.06ZM115.075 137.55H94.7928V125.848H117.562V135.06C117.561 135.72 117.299 136.353 116.833 136.82C116.366 137.287 115.734 137.55 115.075 137.55Z" fill="#3F3D56"/>
<path d="M79.3931 108.288C78.8182 107.336 78.137 106.32 77.0702 106.009C75.8348 105.649 74.5657 106.364 73.4893 107.07C70.27 109.181 67.1698 111.468 64.2028 113.922L64.2061 113.958L71.1358 113.48C72.8047 113.365 74.5309 113.234 76.0058 112.443C76.5654 112.143 77.111 111.742 77.7451 111.714C78.533 111.68 79.2201 112.231 79.7599 112.806C82.9536 116.212 83.8778 121.42 87.4607 124.412C85.2014 118.832 82.5037 113.441 79.3931 108.288Z" fill="white"/>
<path d="M99.0239 137.174C98.6708 136.727 98.5265 136.623 98.1781 136.172C95.3416 132.498 92.6755 128.7 90.1798 124.778C88.4846 122.115 86.8735 119.4 85.3465 116.634C84.6195 115.319 83.9124 113.994 83.2253 112.658C82.6921 111.622 82.1707 110.581 81.6613 109.533C81.5157 109.233 81.3741 108.933 81.2333 108.631C80.9014 107.923 80.5756 107.21 80.2259 106.511C79.8645 105.672 79.3111 104.93 78.6104 104.344C78.2774 104.09 77.8791 103.937 77.4622 103.901C76.875 103.905 76.3 104.07 75.8 104.378C72.0156 106.37 68.4833 108.81 65.2786 111.644C62.069 114.467 59.2002 117.656 56.7306 121.146C56.655 121.254 56.4763 121.151 56.5526 121.042C56.8529 120.617 57.1591 120.196 57.4713 119.78C61.3532 114.61 66.1129 110.164 71.5329 106.645C72.4448 106.054 73.3738 105.49 74.32 104.953C74.7968 104.683 75.2758 104.416 75.7629 104.166C76.2297 103.892 76.7534 103.729 77.2932 103.691C79.1498 103.662 80.1112 105.767 80.7715 107.184C80.979 107.63 81.1891 108.075 81.4016 108.518C82.2049 110.2 83.039 111.867 83.9041 113.519C84.4381 114.539 84.9836 115.552 85.5409 116.56C87.2752 119.699 89.1186 122.774 91.071 125.785C93.6574 129.774 96.2232 133.298 99.1696 137.028C99.2507 137.131 99.1057 137.278 99.0239 137.174Z" fill="white"/>
<path d="M65.0951 110.604C64.9872 110.484 64.88 110.363 64.7715 110.243C63.9153 109.295 62.9966 108.357 61.8209 107.814C61.2603 107.546 60.6483 107.404 60.0275 107.398C59.3868 107.415 58.7552 107.553 58.1654 107.804C57.885 107.916 57.6108 108.044 57.3408 108.179C57.0322 108.335 56.7292 108.501 56.4276 108.668C55.8614 108.982 55.3025 109.309 54.751 109.65C53.6536 110.33 52.5906 111.061 51.5619 111.843C51.0287 112.249 50.5065 112.669 49.9953 113.101C49.5198 113.503 49.0539 113.916 48.5976 114.339C48.5 114.429 48.3544 114.283 48.4519 114.193C48.5722 114.081 48.6938 113.97 48.8154 113.859C49.159 113.548 49.5081 113.243 49.8627 112.944C50.5092 112.398 51.1725 111.873 51.8526 111.369C52.9101 110.584 54.004 109.853 55.1344 109.175C55.6992 108.836 56.2718 108.512 56.8522 108.202C57.0275 108.108 57.2047 108.017 57.3841 107.93C57.791 107.725 58.2138 107.552 58.6484 107.415C59.264 107.215 59.9154 107.151 60.558 107.227C61.1784 107.317 61.7762 107.524 62.3198 107.837C63.4742 108.483 64.3695 109.483 65.2408 110.458C65.3288 110.557 65.1838 110.703 65.0951 110.604Z" fill="white"/>
<path d="M88.748 120.43L91.5142 119.417L92.8876 118.914C93.3313 118.735 93.7839 118.579 94.2435 118.446C94.6454 118.331 95.072 118.337 95.4708 118.462C95.8264 118.594 96.152 118.796 96.428 119.056C96.7101 119.316 96.9725 119.597 97.2132 119.896C97.5122 120.256 97.8068 120.619 98.1027 120.982C99.3241 122.477 100.537 123.98 101.743 125.488C102.948 126.997 104.145 128.512 105.335 130.034C106.527 131.559 107.711 133.09 108.886 134.628C109.03 134.817 109.174 135.005 109.318 135.194C109.398 135.298 109.577 135.195 109.496 135.09C108.312 133.536 107.119 131.989 105.918 130.448C104.714 128.904 103.502 127.366 102.282 125.835C101.061 124.304 99.8324 122.779 98.5954 121.261C98.2873 120.883 97.9786 120.505 97.6694 120.128C97.4086 119.809 97.1507 119.488 96.8647 119.191C96.6211 118.897 96.322 118.654 95.9846 118.476C95.6472 118.298 95.278 118.189 94.8983 118.154C94.4383 118.17 93.9851 118.27 93.5607 118.448C93.0983 118.616 92.637 118.786 92.1751 118.956L89.3895 119.976L88.6931 120.231C88.5696 120.276 88.623 120.476 88.748 120.43Z" fill="white"/>
<path d="M61.4569 109.007C60.746 108.656 59.9548 108.501 59.1644 108.558C58.374 108.614 57.6129 108.881 56.9592 109.329C59.4231 109.755 61.8601 110.324 64.2576 111.035C63.262 110.451 62.4832 109.535 61.4569 109.007Z" fill="white"/>
<path d="M56.9453 109.327L56.6747 109.547C56.7662 109.47 56.8614 109.397 56.9591 109.329L56.9453 109.327Z" fill="white"/>
<path d="M96.324 120.44C96.0818 120.083 95.7444 119.801 95.35 119.626L94.9697 119.641C97.8643 124.763 101.774 129.238 106.458 132.793L96.324 120.44Z" fill="white"/>
<path d="M94.545 114.832C95.7544 114.832 96.7348 113.85 96.7348 112.639C96.7348 111.428 95.7544 110.446 94.545 110.446C93.3356 110.446 92.3552 111.428 92.3552 112.639C92.3552 113.85 93.3356 114.832 94.545 114.832Z" fill="white"/>
<path d="M126.322 137.007C126.753 137.007 127.167 136.835 127.472 136.53C127.776 136.224 127.948 135.81 127.949 135.379V101.72C127.949 101.288 127.777 100.874 127.472 100.569C127.167 100.263 126.754 100.092 126.322 100.092C125.891 100.092 125.477 100.263 125.172 100.569C124.867 100.874 124.696 101.288 124.696 101.72V135.379C124.697 135.81 124.868 136.224 125.173 136.53C125.478 136.835 125.891 137.007 126.322 137.007Z" fill="#3F3D56"/>
<path d="M126.322 137.007C126.753 137.007 127.167 136.835 127.472 136.53C127.776 136.224 127.948 135.811 127.949 135.379V128.242C127.761 127.986 127.516 127.778 127.234 127.635C126.951 127.491 126.639 127.417 126.322 127.417C126.006 127.417 125.693 127.491 125.411 127.635C125.128 127.778 124.883 127.986 124.696 128.242V135.379C124.697 135.811 124.868 136.224 125.173 136.53C125.478 136.835 125.891 137.007 126.322 137.007Z" fill="#2F2E41"/>
<path d="M126.322 130.131C126.786 130.13 127.231 129.945 127.558 129.617C127.886 129.289 128.071 128.844 128.071 128.379V120.704C127.87 120.429 127.607 120.205 127.303 120.051C126.999 119.897 126.663 119.816 126.322 119.816C125.982 119.816 125.646 119.897 125.342 120.051C125.038 120.205 124.775 120.429 124.573 120.704V128.379C124.574 128.844 124.758 129.289 125.086 129.617C125.414 129.945 125.859 130.13 126.322 130.131Z" fill="#FCA311"/>
<path d="M126.322 128.735C126.661 128.735 126.985 128.6 127.224 128.36C127.463 128.121 127.598 127.796 127.598 127.458V121.859C127.451 121.659 127.259 121.495 127.037 121.383C126.816 121.27 126.571 121.212 126.322 121.212C126.074 121.212 125.829 121.27 125.607 121.383C125.386 121.495 125.194 121.659 125.047 121.859V127.458C125.047 127.796 125.182 128.121 125.421 128.36C125.66 128.6 125.984 128.735 126.322 128.735Z" fill="#3F3D56"/>
<path d="M76.1495 174.82C75.864 174.564 75.6916 174.205 75.6701 173.822C75.6486 173.439 75.7798 173.062 76.035 172.776L90.2443 156.855C90.3708 156.713 90.5239 156.597 90.695 156.515C90.866 156.432 91.0516 156.385 91.2412 156.374C91.4307 156.363 91.6205 156.39 91.7997 156.453C91.9789 156.516 92.144 156.613 92.2855 156.74C92.4271 156.867 92.5423 157.02 92.6247 157.191C92.7071 157.362 92.7549 157.548 92.7656 157.738C92.7762 157.928 92.7494 158.118 92.6867 158.297C92.624 158.477 92.5266 158.642 92.4001 158.784L78.1908 174.705C77.9351 174.991 77.5765 175.164 77.1938 175.185C76.8112 175.207 76.4356 175.076 76.1495 174.82Z" fill="#FCA311"/>
<path d="M194.025 201.034C194.025 203.673 193.404 205.692 193.48 207.306C189.217 209.17 184.834 210.744 180.36 212.018C179.854 212.163 179.348 212.301 178.839 212.438C176.081 203.984 173.32 196.242 172.232 195.421C169.742 193.55 168.495 201.291 168.495 199.42C168.495 197.549 169.742 197.549 166.63 195.055C163.515 192.562 165.383 181.339 165.383 181.339L161.025 170.115L165.9 152.215L172.232 128.962H178.459C178.459 128.962 178.643 129.095 178.951 129.345C180.508 130.619 185.207 134.875 184.686 139.562C184.531 140.959 184.878 145.02 185.481 150.427C187.317 166.753 191.535 184.502 191.535 189.185C191.535 195.421 194.025 197.292 194.025 201.034Z" fill="#E6E6E6"/>
<path d="M188.804 150.366C188.796 150.348 188.793 150.333 188.786 150.319C188.646 149.942 188.483 149.575 188.298 149.219C187.246 147.239 188.359 144.199 187.174 140.84C185.258 135.397 182.923 132.187 179.501 129.309C179.4 129.223 179.298 129.139 179.194 129.052L179.19 129.049C176.906 127.17 174.152 125.415 170.733 123.229C170.021 122.773 169.276 122.299 168.503 121.8C167.506 121.159 167.56 119.024 167.618 116.765C167.683 114.257 167.751 111.659 166.522 110.037L166.443 109.932L166.316 109.9C162.103 109.065 157.806 108.733 153.515 108.912H153.512C151.69 108.979 149.88 109.245 148.116 109.704C147.986 109.74 147.855 109.777 147.729 109.82C147.631 109.845 147.534 109.878 147.436 109.91L147.357 109.939L147.295 109.997C146.106 111.188 145.831 113.323 145.701 115.549V115.553C145.676 115.958 145.654 116.364 145.636 116.769C145.535 118.933 145.441 120.978 144.646 121.865C142.873 123.877 140.729 125.528 138.332 126.729C134.599 128.575 131.646 128.517 131.603 128.517L131.259 128.506L131.227 128.846C128.747 133.576 128.841 145.78 128.765 158.849C128.762 159.577 128.757 160.308 128.751 161.043C128.708 167.13 128.592 173.322 128.137 178.965C127.938 181.39 127.681 183.71 127.338 185.877C125.668 196.435 118.104 187.669 114.486 194.694C114.605 195.385 114.805 196.059 115.082 196.702C115.498 196.949 115.924 197.187 116.347 197.426C118.223 198.472 120.134 199.448 122.079 200.354C122.188 200.405 122.296 200.456 122.405 200.503C125.973 202.156 129.652 203.561 133.413 204.708C134.147 204.932 134.881 205.146 135.622 205.349C142.175 207.16 148.924 208.173 155.72 208.363C155.747 208.36 155.775 208.359 155.803 208.36C163.84 208.137 171.825 206.985 179.598 204.925C179.707 204.896 179.815 204.867 179.924 204.838C180.433 204.701 180.939 204.563 181.445 204.419C185.919 203.144 190.302 201.57 194.565 199.706C194.569 199.865 194.585 200.024 194.612 200.18C194.615 200.232 194.623 200.282 194.633 200.332C194.641 200.275 194.648 200.217 194.651 200.159C194.673 199.989 194.691 199.815 194.709 199.641C196.921 178.042 192.327 159.703 188.804 150.366Z" fill="#3F3D56"/>
<path d="M139.133 97.4288C141.339 101.468 144.853 104.635 149.096 106.407C153.339 108.179 158.058 108.452 162.476 107.179C166.895 105.907 170.749 103.166 173.404 99.4072C176.058 95.6486 177.356 91.0966 177.082 86.5009C176.808 81.9053 174.98 77.54 171.898 74.1239C168.816 70.7079 164.664 68.4449 160.125 67.7075C155.587 66.9702 150.934 67.8024 146.931 70.0673C142.929 72.3321 139.816 75.8945 138.105 80.1677C138.012 80.3995 137.929 80.6314 137.846 80.8726C136.878 83.5664 136.493 86.4351 136.715 89.2891C136.937 92.1431 137.761 94.9174 139.133 97.4288Z" fill="#FFB6B6"/>
<path d="M136.225 80.8726C137.095 78.4333 136.716 79.704 137.595 77.2739C137.021 79.4257 137.929 80.6315 137.846 80.8726H161.937V66.8485C154.879 64.0474 147.978 61.6637 143.81 66.8485C140.096 66.8487 136.534 68.3263 133.908 70.9563C131.282 73.5863 129.806 77.1533 129.806 80.8726H136.225Z" fill="#2F2E41"/>
<path d="M144.764 119.856C144.783 119.597 144.811 119.328 144.848 119.068C145.107 117.157 145.756 115.321 146.413 113.503C147.108 111.546 147.812 109.579 148.516 107.622C147.609 111.175 147.886 114.927 149.303 118.307C153.369 115.135 150.803 107.882 156.12 107.882C168.902 107.882 182.054 97.5031 182.054 84.694C182.054 71.8942 176.571 62.3222 163.789 62.3222C150.998 62.3222 140.624 68.1841 140.374 80.9839C156.12 84.694 141.791 118.558 144.764 119.856Z" fill="#2F2E41"/>
<path d="M180.457 82.7321C188.642 82.7321 195.277 76.0879 195.277 67.8918C195.277 59.6957 188.642 53.0515 180.457 53.0515C172.272 53.0515 165.638 59.6957 165.638 67.8918C165.638 76.0879 172.272 82.7321 180.457 82.7321Z" fill="#2F2E41"/>
<path d="M203.56 153.001C203.51 153.764 203.465 154.577 203.427 155.44C202.66 171.687 203.322 193.557 198.157 205.425C197.001 206.058 195.832 206.664 194.651 207.242C194.604 207.263 194.561 207.285 194.521 207.307C194.203 207.462 193.885 207.614 193.567 207.759C193.556 207.769 193.542 207.776 193.527 207.781C190.035 209.433 186.435 210.849 182.754 212.019C182.302 212.164 181.846 212.301 181.391 212.439C181.293 212.468 181.196 212.497 181.098 212.526C174.162 214.58 166.99 215.734 159.76 215.96C159.385 215.971 159.016 215.978 158.658 215.986C158.532 215.989 158.409 215.993 158.286 215.993C157.881 215.996 157.48 216 157.075 216C156.258 216 155.445 215.988 154.636 215.964C147.839 215.773 141.091 214.761 134.537 212.949C133.796 212.746 133.063 212.533 132.329 212.308C128.567 211.162 124.889 209.756 121.32 208.103C121.212 208.056 121.104 208.005 120.995 207.955C119.051 207.05 117.14 206.074 115.263 205.027C114.84 204.788 114.414 204.549 113.998 204.303C113.721 203.659 113.521 202.985 113.402 202.294C112.581 198.346 111.924 201.009 111.454 192.794C111.024 185.262 110.749 177.709 110.648 173.391C110.615 172.24 110.604 171.317 110.601 170.688C110.984 167.944 117.142 164.832 126.124 161.875C126.973 161.596 127.851 161.318 128.751 161.043C131.18 160.293 133.775 159.559 136.485 158.849C143.388 157.04 151.054 155.378 158.662 154.007C162.417 153.334 166.157 152.729 169.79 152.215C176.161 151.311 182.19 150.684 187.347 150.427C187.842 150.402 188.327 150.38 188.804 150.366C189.317 150.344 189.819 150.33 190.311 150.319C197.741 150.156 202.816 150.93 203.56 153.001Z" fill="#2F2E41"/>
<path opacity="0.2" d="M203.56 153.001C203.51 153.764 203.465 154.577 203.427 155.44C197.796 149.367 137.136 176.496 111.454 192.794C111.024 185.262 110.749 177.709 110.648 173.391C110.615 172.24 110.604 171.317 110.601 170.688C110.984 167.944 117.142 164.832 126.124 161.875C126.973 161.596 127.851 161.318 128.751 161.042C131.18 160.293 133.775 159.559 136.485 158.849C143.388 157.04 151.054 155.378 158.662 154.007C162.417 153.334 166.157 152.729 169.79 152.215C176.161 151.31 182.19 150.684 187.347 150.427C187.842 150.402 188.327 150.38 188.804 150.366C189.317 150.344 189.819 150.33 190.311 150.319C197.741 150.156 202.816 150.93 203.56 153.001Z" fill="black"/>
<path d="M80.1982 171.825C80.767 172.543 81.4861 173.128 82.3049 173.537C83.1238 173.947 84.0223 174.172 84.9373 174.196C85.8524 174.221 86.7616 174.044 87.601 173.678C88.4403 173.313 89.1895 172.767 89.7956 172.08L110.378 180.545L108.157 169.182L88.952 162.886C87.7322 161.943 86.2093 161.481 84.6719 161.587C83.1344 161.693 81.6892 162.36 80.6102 163.462C79.5312 164.564 78.8932 166.024 78.8173 167.565C78.7413 169.106 79.2327 170.622 80.1982 171.825Z" fill="#FFB6B6"/>
<path d="M148.663 124.508L148.55 124.496L136.547 125.368C135.024 125.479 133.541 125.913 132.197 126.641C130.854 127.37 129.681 128.376 128.755 129.594C128.325 130.158 127.953 130.764 127.644 131.402L127.641 131.404C126.606 133.524 126.294 135.926 126.753 138.24L132.403 166.724L118.808 165.487L113.845 166.337L107.988 163.97L95.9705 164.175L95.692 165.098L93.171 173.466L92.9731 174.124L111.324 185.704L116.644 184.083L119.151 186.011L119.271 186.015L124.241 186.113L145.437 186.529L151.231 176.25L152.137 174.639C158.866 159.543 160.526 149.005 159.999 141.745C159.723 137.909 158.838 134.994 157.765 132.796C154.45 126.006 148.896 124.565 148.663 124.508Z" fill="#3F3D56"/>
<path d="M182.331 81.0673C179.521 80.4347 176.916 79.1018 174.757 77.1922C172.598 75.2827 170.955 72.8582 169.981 70.1436C169.111 67.6181 168.783 64.845 167.324 62.5975C169.547 59.5399 171.33 56.1845 172.62 52.6298C173.119 51.2536 174.289 48.7554 172.306 47.9983C170.727 47.3952 168.932 48.8509 167.996 49.9995C167.285 50.8699 166.775 51.8872 166.502 52.9784C166.179 51.5506 165.856 50.1228 165.534 48.695C165.492 48.558 165.4 48.4421 165.276 48.3715C165.152 48.3009 165.005 48.2809 164.867 48.3158C162.221 48.7676 160.301 51.2212 159.968 53.8056C159.786 55.1362 160.088 56.4878 160.82 57.6136C161.67 58.9087 162.914 59.8371 164.099 60.8021C165.359 61.8285 166.427 62.9215 167.104 64.4224C167.808 65.9822 168.125 67.6893 168.592 69.3272C169.478 72.4731 171.195 75.3214 173.563 77.5718C175.93 79.8222 178.86 81.3915 182.043 82.1143C182.723 82.2631 183.014 81.2167 182.331 81.0673ZM167.388 55.1121C167.303 53.7482 167.663 52.3935 168.414 51.2523C168.789 50.6737 169.26 50.1629 169.806 49.7417C170.324 49.3457 171.087 48.8212 171.772 48.9667C172.661 49.1553 172.303 50.1483 172.115 50.747C171.866 51.537 171.592 52.3186 171.294 53.0918C170.712 54.5932 170.038 56.0567 169.273 57.4737C168.876 58.2112 168.452 58.9331 168.01 59.6432C167.704 58.2935 167.399 56.9437 167.094 55.594C167.19 55.5587 167.271 55.4919 167.325 55.4044C167.378 55.3169 167.401 55.2139 167.388 55.1121ZM161.056 55.3281C160.879 54.0948 161.136 52.8381 161.784 51.7741C162.431 50.71 163.428 49.905 164.604 49.4974C165.465 53.3024 166.325 57.1075 167.186 60.9126C167.008 61.1749 166.825 61.4333 166.641 61.6914C166.593 61.636 166.549 61.5787 166.499 61.5242C164.694 59.557 161.547 58.2161 161.056 55.3281Z" fill="#FCA311"/>
</g>
<defs>
<clipPath id="clip0_39_84">
<rect width="203.56" height="216" fill="white"/>
</clipPath>
</defs>
</svg>
