<svg width="24" height="24" viewBox="0 0 24 24" fill="none" xmlns="http://www.w3.org/2000/svg">
<g clip-path="url(#clip0_43_886)">
<path d="M12 24C18.6274 24 24 18.6274 24 12C24 5.37258 18.6274 0 12 0C5.37261 0 3.05176e-05 5.37258 3.05176e-05 12C3.05176e-05 18.6274 5.37261 24 12 24Z" fill="#1769FF"/>
<path d="M9.49055 8C9.8363 8 10.1557 8.02635 10.4488 8.10535C10.7418 8.15805 10.9822 8.26675 11.1963 8.39845C11.4103 8.53015 11.5684 8.71785 11.677 8.95825C11.7824 9.19865 11.8384 9.4917 11.8384 9.81115C11.8384 10.1832 11.7594 10.5026 11.5717 10.743C11.4104 10.9834 11.1469 11.1974 10.8242 11.3555C11.2786 11.4872 11.6244 11.7277 11.8351 12.047C12.0459 12.3665 12.1809 12.7649 12.1809 13.2193C12.1809 13.5914 12.1019 13.9108 11.9669 14.1776C11.8351 14.4443 11.6211 14.6847 11.3807 14.8427C11.1403 15.0041 10.8472 15.1358 10.5278 15.2148C10.2084 15.2939 9.889 15.3466 9.56955 15.3466L6 15.3532V8H9.49055ZM9.2765 10.9834C9.56955 10.9834 9.80995 10.9044 9.99435 10.7694C10.1788 10.6343 10.2611 10.3973 10.2611 10.1042C10.2611 9.94285 10.2347 9.7848 10.182 9.6794C10.1293 9.57405 10.0504 9.4917 9.94165 9.4127C9.8363 9.36 9.72765 9.3073 9.5959 9.28095C9.4642 9.2546 9.3292 9.2546 9.1711 9.2546H7.6267V10.9867C7.6267 10.9834 9.2765 10.9834 9.2765 10.9834ZM9.35555 14.1282C9.5169 14.1282 9.67495 14.1018 9.80995 14.0755C9.94165 14.0491 10.0767 13.9965 10.182 13.9141C10.2874 13.8319 10.3698 13.7528 10.4488 13.6211C10.5015 13.4894 10.5541 13.328 10.5541 13.1403C10.5541 12.7682 10.4488 12.5015 10.2347 12.3138C10.0207 12.1524 9.72765 12.0734 9.38185 12.0734H7.6267V14.1249H9.35555V14.1282Z" fill="white"/>
<path d="M14.499 14.1018C14.713 14.3158 15.0324 14.4212 15.4572 14.4212C15.7503 14.4212 16.017 14.3422 16.2311 14.2072C16.4451 14.0458 16.5768 13.8878 16.6295 13.7264H17.9335C17.7195 14.3652 17.4001 14.8197 16.9753 15.1127C16.5505 15.3795 16.0434 15.5375 15.4309 15.5375C15.0061 15.5375 14.6307 15.4585 14.2849 15.3235C13.9392 15.1918 13.6725 15.0041 13.4321 14.7373C13.1917 14.4969 13.0073 14.2039 12.8986 13.8581C12.7669 13.5124 12.7109 13.1402 12.7109 12.7122C12.7109 12.3137 12.7636 11.9383 12.8986 11.5926C13.0336 11.2468 13.218 10.9537 13.4584 10.687C13.6988 10.4466 13.9919 10.2326 14.3113 10.1008C14.6571 9.96913 15.0028 9.88683 15.4309 9.88683C15.8853 9.88683 16.2838 9.96583 16.6295 10.1535C16.9753 10.3412 17.242 10.552 17.4561 10.8714C17.6701 11.1645 17.8282 11.5102 17.9368 11.8823C17.9895 12.2544 18.0159 12.6298 17.9895 13.0546H14.1269C14.1269 13.4893 14.2849 13.8878 14.499 14.1018ZM16.1784 11.3028C15.9907 11.1151 15.6976 11.0097 15.3519 11.0097C15.1115 11.0097 14.9271 11.0624 14.7657 11.1414C14.6044 11.2205 14.499 11.3291 14.3936 11.4345C14.2882 11.5399 14.2323 11.6749 14.2059 11.8066C14.1796 11.9383 14.1532 12.047 14.1532 12.1524H16.5505C16.4978 11.7572 16.3628 11.4905 16.1784 11.3028ZM13.8338 8.50708H16.8172V9.22493H13.8338V8.50708Z" fill="white"/>
</g>
<defs>
<clipPath id="clip0_43_886">
<rect width="24" height="24" fill="white"/>
</clipPath>
</defs>
</svg>
