<svg width="24" height="24" viewBox="0 0 24 24" fill="none" xmlns="http://www.w3.org/2000/svg">
<g clip-path="url(#clip0_43_890)">
<path d="M12 24C18.6274 24 24 18.6274 24 12C24 5.37258 18.6274 0 12 0C5.37258 0 0 5.37258 0 12C0 18.6274 5.37258 24 12 24Z" fill="#ECE5DD"/>
<path d="M12 24C18.6274 24 24 18.6274 24 12C24 5.37258 18.6274 0 12 0C5.37258 0 0 5.37258 0 12C0 18.6274 5.37258 24 12 24Z" fill="#ECE5DD"/>
<path d="M24 12.0001C24 8.65547 22.6312 5.63101 20.4239 3.45483L13.5652 8.8696L11.4782 9.39132L4.69564 4.69571L2.95433 4.11526C2.72258 4.3809 2.50269 4.65708 2.2948 4.94251L17.3042 22.7662C21.271 20.8081 24 16.7231 24 12.0001Z" fill="#D9CBBD"/>
<path d="M24 12C24 9.34251 23.1355 6.88734 21.6733 4.8988L20.8435 5.54999V20.1106C22.8033 17.9747 24 15.1273 24 12Z" fill="#AC2201"/>
<path d="M19.506 2.63782L12.2965 8.09088C12.1211 8.22354 11.8789 8.22354 11.7035 8.09088L4.49404 2.63782C3.66356 3.30447 2.92378 4.07932 2.29584 4.94102L11.6966 12.3168C11.8747 12.4566 12.1252 12.4566 12.3034 12.3168L21.7041 4.94102C21.0762 4.07927 20.3364 3.30452 19.506 2.63782Z" fill="#CD2900"/>
<path d="M3.15652 20.1106V5.54999L2.32664 4.8988C0.864469 6.88734 0 9.34251 0 12C0 15.1273 1.19667 17.9747 3.15652 20.1106Z" fill="#AC2201"/>
</g>
<defs>
<clipPath id="clip0_43_890">
<rect width="24" height="24" fill="white"/>
</clipPath>
</defs>
</svg>
