<svg width="17" height="17" viewBox="0 0 17 17" fill="none" xmlns="http://www.w3.org/2000/svg">
<path d="M7 3.5C7 5.433 5.433 7 3.5 7C1.567 7 0 5.433 0 3.5C0 1.567 1.567 0 3.5 0C5.433 0 7 1.567 7 3.5Z" fill="#FCA311"/>
<path d="M17 3.5C17 5.433 15.433 7 13.5 7C11.567 7 10 5.433 10 3.5C10 1.567 11.567 0 13.5 0C15.433 0 17 1.567 17 3.5Z" fill="#FCA311"/>
<path d="M7 13.5C7 15.433 5.433 17 3.5 17C1.567 17 0 15.433 0 13.5C0 11.567 1.567 10 3.5 10C5.433 10 7 11.567 7 13.5Z" fill="#FCA311"/>
<path d="M17 13.5C17 15.433 15.433 17 13.5 17C11.567 17 10 15.433 10 13.5C10 11.567 11.567 10 13.5 10C15.433 10 17 11.567 17 13.5Z" fill="#FCA311"/>
</svg>
