<svg width="17" height="17" viewBox="0 0 17 17" fill="none" xmlns="http://www.w3.org/2000/svg">
<path fill-rule="evenodd" clip-rule="evenodd" d="M0 3.5C0 1.567 1.567 0 3.5 0C5.433 0 7 1.567 7 3.5C7 5.433 5.433 7 3.5 7C1.567 7 0 5.433 0 3.5ZM5.5 3.5C5.5 2.39543 4.60457 1.5 3.5 1.5C2.39543 1.5 1.5 2.39543 1.5 3.5C1.5 4.60457 2.39543 5.5 3.5 5.5C4.60457 5.5 5.5 4.60457 5.5 3.5Z" fill="#14213D"/>
<path fill-rule="evenodd" clip-rule="evenodd" d="M10 3.5C10 1.567 11.567 0 13.5 0C15.433 0 17 1.567 17 3.5C17 5.433 15.433 7 13.5 7C11.567 7 10 5.433 10 3.5ZM15.5 3.5C15.5 2.39543 14.6046 1.5 13.5 1.5C12.3954 1.5 11.5 2.39543 11.5 3.5C11.5 4.60457 12.3954 5.5 13.5 5.5C14.6046 5.5 15.5 4.60457 15.5 3.5Z" fill="#14213D"/>
<path fill-rule="evenodd" clip-rule="evenodd" d="M0 13.5C0 11.567 1.567 10 3.5 10C5.433 10 7 11.567 7 13.5C7 15.433 5.433 17 3.5 17C1.567 17 0 15.433 0 13.5ZM5.5 13.5C5.5 12.3954 4.60457 11.5 3.5 11.5C2.39543 11.5 1.5 12.3954 1.5 13.5C1.5 14.6046 2.39543 15.5 3.5 15.5C4.60457 15.5 5.5 14.6046 5.5 13.5Z" fill="#14213D"/>
<path fill-rule="evenodd" clip-rule="evenodd" d="M10 13.5C10 11.567 11.567 10 13.5 10C15.433 10 17 11.567 17 13.5C17 15.433 15.433 17 13.5 17C11.567 17 10 15.433 10 13.5ZM15.5 13.5C15.5 12.3954 14.6046 11.5 13.5 11.5C12.3954 11.5 11.5 12.3954 11.5 13.5C11.5 14.6046 12.3954 15.5 13.5 15.5C14.6046 15.5 15.5 14.6046 15.5 13.5Z" fill="#14213D"/>
</svg>
