<svg width="24" height="24" viewBox="0 0 24 24" fill="none" xmlns="http://www.w3.org/2000/svg">
<g clip-path="url(#clip0_43_877)">
<path d="M12 24C18.6274 24 24 18.6274 24 12C24 5.37258 18.6274 0 12 0C5.3726 0 1.52588e-05 5.37258 1.52588e-05 12C1.52588e-05 18.6274 5.3726 24 12 24Z" fill="#0077B5"/>
<path fill-rule="evenodd" clip-rule="evenodd" d="M9.38735 7.14195C9.38735 7.7645 8.91335 8.2683 8.1721 8.2683C7.4597 8.2683 6.98565 7.7645 7.00035 7.14195C6.98565 6.48915 7.45965 6 8.1863 6C8.91335 6 9.37315 6.48915 9.38735 7.14195ZM7.05995 16.4095V9.1581H9.31355V16.409L7.05995 16.4095Z" fill="white"/>
<path fill-rule="evenodd" clip-rule="evenodd" d="M11.1196 11.4723C11.1196 10.5678 11.0898 9.79674 11.06 9.15909H13.0175L13.1216 10.1525H13.1661C13.4627 9.69269 14.2039 8.99634 15.405 8.99634C16.8876 8.99634 17.9997 9.97509 17.9997 12.1095V16.4105H15.7461V12.3919C15.7461 11.4572 15.4202 10.8199 14.6046 10.8199C13.9816 10.8199 13.6112 11.2499 13.4631 11.6648C13.4035 11.8134 13.3742 12.0206 13.3742 12.2287V16.4105H11.1205V11.4723H11.1196Z" fill="white"/>
</g>
<defs>
<clipPath id="clip0_43_877">
<rect width="24" height="24" fill="white"/>
</clipPath>
</defs>
</svg>
