<svg width="24" height="24" viewBox="0 0 24 24" fill="none" xmlns="http://www.w3.org/2000/svg">
<g clip-path="url(#clip0_43_881)">
<path d="M12 24C18.6274 24 24 18.6274 24 12C24 5.37258 18.6274 0 12 0C5.37258 0 0 5.37258 0 12C0 18.6274 5.37258 24 12 24Z" fill="black"/>
<path d="M13 12C13 15.3137 10.3137 18 7 18C3.68629 18 1 15.3137 1 12C1 8.68629 3.68629 6 7 6C10.3137 6 13 8.68629 13 12Z" fill="white"/>
<path d="M23 12C23 14.7614 22.5523 17 22 17C21.4477 17 21 14.7614 21 12C21 9.23858 21.4477 7 22 7C22.5523 7 23 9.23858 23 12Z" fill="white"/>
<path d="M17 18C18.6569 18 20 15.3137 20 12C20 8.68629 18.6569 6 17 6C15.3431 6 14 8.68629 14 12C14 15.3137 15.3431 18 17 18Z" fill="white"/>
</g>
<defs>
<clipPath id="clip0_43_881">
<rect width="24" height="24" fill="white"/>
</clipPath>
</defs>
</svg>
